<svg xmlns="http://www.w3.org/2000/svg" viewBox="0 0 172.37 17.92"><title>Asset 1</title><g id="Layer_2" data-name="Layer 2"><g id="Layer_1-2" data-name="Layer 1"><path d="M0,13v-.18H2.62l0,.15c.25,1.6,1.84,2.6,4.16,2.6s3.79-1,3.79-2.67h0c0-1.39-.95-2.15-3.25-2.66L5.46,9.86C2.06,9.14.41,7.57.41,5h0C.42,2,3,0,6.7,0S12.79,2,13,4.88v.2H10.36V4.92c-.24-1.61-1.63-2.59-3.69-2.59s-3.52,1-3.52,2.55h0c0,1.3,1,2.09,3.15,2.56l1.9.4c3.58.76,5.12,2.21,5.12,4.89h0c0,3.17-2.5,5.17-6.61,5.17C2.8,17.92.23,16.07,0,13Z" style="fill:#eed9b7"/><path d="M20.62.29h2.91l6.29,17.34H27L25.41,13H18.73l-1.6,4.68H14.3ZM19.45,10.78h5.23L22.09,3.16h0Z" style="fill:#eed9b7"/><path d="M31.74.29h2.69V17.63H31.74Z" style="fill:#eed9b7"/><path d="M42,9v0C42,3.44,45.11,0,50,0c3.82,0,6.7,2.36,7.24,5.78l0,.11H54.62l-.07-.24A4.38,4.38,0,0,0,50,2.38c-3.22,0-5.29,2.55-5.29,6.56V9c0,4,2.08,6.58,5.29,6.58a4.43,4.43,0,0,0,4.56-3.4l0-.11h2.67v.12c-.54,3.45-3.41,5.77-7.25,5.77C45.11,17.92,42,14.46,42,9Z" style="fill:#eed9b7"/><path d="M59.73.29h2.69V7.62h8.91V.29H74V17.63h-2.7V10H62.42v7.68H59.73Z" style="fill:#eed9b7"/><path d="M82.24.29h2.9l6.3,17.34H88.62L87,13H80.35l-1.6,4.68H75.92ZM81.07,10.78H86.3L83.71,3.16h0Z" style="fill:#eed9b7"/><path d="M93.36.29h2.69V17.63H93.36Z" style="fill:#eed9b7"/><path d="M103.55,2.61H98.24V.29h13.3V2.61h-5.3v15h-2.69Z" style="fill:#eed9b7"/><path d="M116.38.29h2.91l6.29,17.34h-2.82L121.17,13h-6.68l-1.6,4.68h-2.83Zm-1.17,10.49h5.23l-2.59-7.62h0Z" style="fill:#eed9b7"/><path d="M127.5.29H130l8.92,12.82H139V.29h2.66V17.63h-2.47L130.24,4.78h-.08V17.63H127.5Z" style="fill:#eed9b7"/><path d="M149.66,10.53,143.56.29h3L151,8h.09L155.48.29h3l-6.12,10.24v7.1h-2.69Z" style="fill:#eed9b7"/><path d="M163.16.29h2.91l6.3,17.34h-2.83L168,13h-6.69l-1.59,4.68h-2.83ZM162,10.78h5.22l-2.58-7.62h0Z" style="fill:#eed9b7"/></g></g></svg>